<svg xmlns="http://www.w3.org/2000/svg" viewBox="0 0 780 563" width="780" height="563" font-family="'Iowan Old Style', Charter, Georgia, serif"><rect width="780" height="563" fill="#faf7ef"/>
<text x="390.0" y="52" text-anchor="middle" font-size="13" fill="#3d362c" letter-spacing="0.3"><tspan x="390.0" dy="0">Eines dieser Systeme führt ein öffentliches Register. Das andere keines.</tspan></text>
<text x="205.0" y="98" text-anchor="middle" font-size="15" font-weight="bold" fill="#16130e">Krypto</text>
<text x="205.0" y="118" text-anchor="middle" font-size="12" fill="#3d362c" font-style="italic">2010–2026</text>
<text x="575.0" y="98" text-anchor="middle" font-size="15" font-weight="bold" fill="#16130e">Das Geld in Ihrer Tasche</text>
<text x="575.0" y="118" text-anchor="middle" font-size="12" fill="#3d362c" font-style="italic">dieselben Jahre</text>
<rect x="40" y="138" width="330.0" height="292" fill="none" stroke="#16130e" stroke-width="1.4"/>
<rect x="410.0" y="138" width="330.0" height="292" fill="none" stroke="#16130e" stroke-width="1.4"/>
<circle cx="64.5" cy="161.8" r="1.6" fill="#16130e"/><circle cx="76.4" cy="163.2" r="1.6" fill="#16130e"/><circle cx="88.2" cy="162.1" r="1.6" fill="#16130e"/><circle cx="100.1" cy="163.5" r="1.6" fill="#16130e"/><circle cx="109.5" cy="162.5" r="1.6" fill="#16130e"/><circle cx="121.3" cy="163.9" r="1.6" fill="#16130e"/><circle cx="133.2" cy="162.8" r="1.6" fill="#16130e"/><circle cx="142.6" cy="161.8" r="1.6" fill="#16130e"/><circle cx="154.5" cy="163.2" r="1.6" fill="#16130e"/><circle cx="166.3" cy="162.1" r="1.6" fill="#16130e"/><circle cx="178.2" cy="163.5" r="1.6" fill="#16130e"/><circle cx="187.6" cy="162.5" r="1.6" fill="#16130e"/><circle cx="199.4" cy="163.9" r="1.6" fill="#16130e"/><circle cx="211.3" cy="162.8" r="1.6" fill="#16130e"/><circle cx="220.7" cy="161.8" r="1.6" fill="#16130e"/><circle cx="232.5" cy="163.2" r="1.6" fill="#16130e"/><circle cx="244.4" cy="162.1" r="1.6" fill="#16130e"/><circle cx="256.2" cy="163.5" r="1.6" fill="#16130e"/><circle cx="265.6" cy="162.5" r="1.6" fill="#16130e"/><circle cx="277.5" cy="163.9" r="1.6" fill="#16130e"/><circle cx="289.4" cy="162.8" r="1.6" fill="#16130e"/><circle cx="298.8" cy="161.8" r="1.6" fill="#16130e"/><circle cx="310.6" cy="163.2" r="1.6" fill="#16130e"/><circle cx="322.5" cy="162.1" r="1.6" fill="#16130e"/><circle cx="334.3" cy="163.5" r="1.6" fill="#16130e"/><circle cx="343.7" cy="162.5" r="1.6" fill="#16130e"/><circle cx="65.6" cy="173.6" r="1.6" fill="#16130e"/><circle cx="77.4" cy="172.5" r="1.6" fill="#16130e"/><circle cx="86.8" cy="171.5" r="1.6" fill="#16130e"/><circle cx="98.7" cy="172.9" r="1.6" fill="#16130e"/><circle cx="110.5" cy="171.8" r="1.6" fill="#16130e"/><circle cx="122.4" cy="173.2" r="1.6" fill="#16130e"/><circle cx="131.8" cy="172.2" r="1.6" fill="#16130e"/><circle cx="143.7" cy="173.6" r="1.6" fill="#16130e"/><circle cx="155.5" cy="172.5" r="1.6" fill="#16130e"/><circle cx="164.9" cy="171.5" r="1.6" fill="#16130e"/><circle cx="176.8" cy="172.9" r="1.6" fill="#16130e"/><circle cx="188.6" cy="171.8" r="1.6" fill="#16130e"/><circle cx="200.5" cy="173.2" r="1.6" fill="#16130e"/><circle cx="209.9" cy="172.2" r="1.6" fill="#16130e"/><circle cx="221.7" cy="173.6" r="1.6" fill="#16130e"/><circle cx="233.6" cy="172.5" r="1.6" fill="#16130e"/><circle cx="243.0" cy="171.5" r="1.6" fill="#16130e"/><circle cx="254.8" cy="172.9" r="1.6" fill="#16130e"/><circle cx="266.7" cy="171.8" r="1.6" fill="#16130e"/><circle cx="278.6" cy="173.2" r="1.6" fill="#16130e"/><circle cx="288.0" cy="172.2" r="1.6" fill="#16130e"/><circle cx="299.8" cy="173.6" r="1.6" fill="#16130e"/><circle cx="311.7" cy="172.5" r="1.6" fill="#16130e"/><circle cx="321.1" cy="171.5" r="1.6" fill="#16130e"/><circle cx="332.9" cy="172.9" r="1.6" fill="#16130e"/><circle cx="344.8" cy="171.8" r="1.6" fill="#16130e"/><circle cx="66.6" cy="182.9" r="1.6" fill="#16130e"/><circle cx="76.0" cy="181.9" r="1.6" fill="#16130e"/><circle cx="87.9" cy="183.3" r="1.6" fill="#16130e"/><circle cx="99.7" cy="182.2" r="1.6" fill="#16130e"/><circle cx="109.1" cy="181.2" r="1.6" fill="#16130e"/><circle cx="121.0" cy="182.6" r="1.6" fill="#16130e"/><circle cx="132.8" cy="181.5" r="1.6" fill="#16130e"/><circle cx="144.7" cy="182.9" r="1.6" fill="#16130e"/><circle cx="154.1" cy="181.9" r="1.6" fill="#16130e"/><circle cx="166.0" cy="183.3" r="1.6" fill="#16130e"/><circle cx="177.8" cy="182.2" r="1.6" fill="#16130e"/><circle cx="187.2" cy="181.2" r="1.6" fill="#16130e"/><circle cx="199.1" cy="182.6" r="1.6" fill="#16130e"/><circle cx="210.9" cy="181.5" r="1.6" fill="#16130e"/><circle cx="222.8" cy="182.9" r="1.6" fill="#16130e"/><circle cx="232.2" cy="181.9" r="1.6" fill="#16130e"/><circle cx="244.0" cy="183.3" r="1.6" fill="#16130e"/><circle cx="255.9" cy="182.2" r="1.6" fill="#16130e"/><circle cx="265.3" cy="181.2" r="1.6" fill="#16130e"/><circle cx="277.1" cy="182.6" r="1.6" fill="#16130e"/><circle cx="289.0" cy="181.5" r="1.6" fill="#16130e"/><circle cx="300.9" cy="182.9" r="1.6" fill="#16130e"/><circle cx="310.3" cy="181.9" r="1.6" fill="#16130e"/><circle cx="322.1" cy="183.3" r="1.6" fill="#16130e"/><circle cx="334.0" cy="182.2" r="1.6" fill="#16130e"/><circle cx="343.4" cy="181.2" r="1.6" fill="#16130e"/><circle cx="65.2" cy="192.3" r="1.6" fill="#16130e"/><circle cx="77.1" cy="191.2" r="1.6" fill="#16130e"/><circle cx="88.9" cy="192.6" r="1.6" fill="#16130e"/><circle cx="98.3" cy="191.6" r="1.6" fill="#16130e"/><circle cx="110.2" cy="193.0" r="1.6" fill="#16130e"/><circle cx="122.0" cy="191.9" r="1.6" fill="#16130e"/><circle cx="131.4" cy="190.9" r="1.6" fill="#16130e"/><circle cx="143.3" cy="192.3" r="1.6" fill="#16130e"/><circle cx="155.2" cy="191.2" r="1.6" fill="#16130e"/><circle cx="167.0" cy="192.6" r="1.6" fill="#16130e"/><circle cx="176.4" cy="191.6" r="1.6" fill="#16130e"/><circle cx="188.3" cy="193.0" r="1.6" fill="#16130e"/><circle cx="200.1" cy="191.9" r="1.6" fill="#16130e"/><circle cx="209.5" cy="190.9" r="1.6" fill="#16130e"/><circle cx="221.4" cy="192.3" r="1.6" fill="#16130e"/><circle cx="233.2" cy="191.2" r="1.6" fill="#16130e"/><circle cx="245.1" cy="192.6" r="1.6" fill="#16130e"/><circle cx="254.5" cy="191.6" r="1.6" fill="#16130e"/><circle cx="266.3" cy="193.0" r="1.6" fill="#16130e"/><circle cx="278.2" cy="191.9" r="1.6" fill="#16130e"/><circle cx="287.6" cy="190.9" r="1.6" fill="#16130e"/><circle cx="299.5" cy="192.3" r="1.6" fill="#16130e"/><circle cx="311.3" cy="191.2" r="1.6" fill="#16130e"/><circle cx="323.2" cy="192.6" r="1.6" fill="#16130e"/><circle cx="332.6" cy="191.6" r="1.6" fill="#16130e"/><circle cx="344.4" cy="193.0" r="1.6" fill="#16130e"/><circle cx="66.3" cy="201.6" r="1.6" fill="#16130e"/><circle cx="75.7" cy="200.6" r="1.6" fill="#16130e"/><circle cx="87.5" cy="202.0" r="1.6" fill="#16130e"/><circle cx="99.4" cy="200.9" r="1.6" fill="#16130e"/><circle cx="111.2" cy="202.3" r="1.6" fill="#16130e"/><circle cx="120.6" cy="201.3" r="1.6" fill="#16130e"/><circle cx="132.5" cy="202.7" r="1.6" fill="#16130e"/><circle cx="144.4" cy="201.6" r="1.6" fill="#16130e"/><circle cx="153.8" cy="200.6" r="1.6" fill="#16130e"/><circle cx="165.6" cy="202.0" r="1.6" fill="#16130e"/><circle cx="177.5" cy="200.9" r="1.6" fill="#16130e"/><circle cx="189.3" cy="202.3" r="1.6" fill="#16130e"/><circle cx="198.7" cy="201.3" r="1.6" fill="#16130e"/><circle cx="210.6" cy="202.7" r="1.6" fill="#16130e"/><circle cx="222.4" cy="201.6" r="1.6" fill="#16130e"/><circle cx="231.8" cy="200.6" r="1.6" fill="#16130e"/><circle cx="243.7" cy="202.0" r="1.6" fill="#16130e"/><circle cx="255.5" cy="200.9" r="1.6" fill="#16130e"/><circle cx="267.4" cy="202.3" r="1.6" fill="#16130e"/><circle cx="276.8" cy="201.3" r="1.6" fill="#16130e"/><circle cx="288.7" cy="202.7" r="1.6" fill="#16130e"/><circle cx="300.5" cy="201.6" r="1.6" fill="#16130e"/><circle cx="309.9" cy="200.6" r="1.6" fill="#16130e"/><circle cx="321.8" cy="202.0" r="1.6" fill="#16130e"/><circle cx="333.6" cy="200.9" r="1.6" fill="#16130e"/><circle cx="345.5" cy="202.3" r="1.6" fill="#16130e"/><circle cx="64.9" cy="211.0" r="1.6" fill="#16130e"/><circle cx="76.7" cy="212.4" r="1.6" fill="#16130e"/><circle cx="88.6" cy="211.3" r="1.6" fill="#16130e"/><circle cx="98.0" cy="210.3" r="1.6" fill="#16130e"/><circle cx="109.8" cy="211.7" r="1.6" fill="#16130e"/><circle cx="121.7" cy="210.6" r="1.6" fill="#16130e"/><circle cx="133.6" cy="212.0" r="1.6" fill="#16130e"/><circle cx="143.0" cy="211.0" r="1.6" fill="#16130e"/><circle cx="154.8" cy="212.4" r="1.6" fill="#16130e"/><circle cx="166.7" cy="211.3" r="1.6" fill="#16130e"/><circle cx="176.1" cy="210.3" r="1.6" fill="#16130e"/><circle cx="187.9" cy="211.7" r="1.6" fill="#16130e"/><circle cx="199.8" cy="210.6" r="1.6" fill="#16130e"/><circle cx="211.6" cy="212.0" r="1.6" fill="#16130e"/><circle cx="221.0" cy="211.0" r="1.6" fill="#16130e"/><circle cx="232.9" cy="212.4" r="1.6" fill="#16130e"/><circle cx="244.7" cy="211.3" r="1.6" fill="#16130e"/><circle cx="254.1" cy="210.3" r="1.6" fill="#16130e"/><circle cx="266.0" cy="211.7" r="1.6" fill="#16130e"/><circle cx="277.9" cy="210.6" r="1.6" fill="#16130e"/><circle cx="289.7" cy="212.0" r="1.6" fill="#16130e"/><circle cx="299.1" cy="211.0" r="1.6" fill="#16130e"/><circle cx="311.0" cy="212.4" r="1.6" fill="#16130e"/><circle cx="322.8" cy="211.3" r="1.6" fill="#16130e"/><circle cx="332.2" cy="210.3" r="1.6" fill="#16130e"/><circle cx="344.1" cy="211.7" r="1.6" fill="#16130e"/><circle cx="65.9" cy="220.3" r="1.6" fill="#16130e"/><circle cx="77.8" cy="221.7" r="1.6" fill="#16130e"/><circle cx="87.2" cy="220.6" r="1.6" fill="#16130e"/><circle cx="99.0" cy="222.0" r="1.6" fill="#16130e"/><circle cx="110.9" cy="221.0" r="1.6" fill="#16130e"/><circle cx="120.3" cy="219.9" r="1.6" fill="#16130e"/><circle cx="132.2" cy="221.3" r="1.6" fill="#16130e"/><circle cx="144.0" cy="220.3" r="1.6" fill="#16130e"/><circle cx="155.9" cy="221.7" r="1.6" fill="#16130e"/><circle cx="165.3" cy="220.6" r="1.6" fill="#16130e"/><circle cx="177.1" cy="222.0" r="1.6" fill="#16130e"/><circle cx="189.0" cy="221.0" r="1.6" fill="#16130e"/><circle cx="198.4" cy="219.9" r="1.6" fill="#16130e"/><circle cx="210.2" cy="221.3" r="1.6" fill="#16130e"/><circle cx="222.1" cy="220.3" r="1.6" fill="#16130e"/><circle cx="233.9" cy="221.7" r="1.6" fill="#16130e"/><circle cx="243.3" cy="220.6" r="1.6" fill="#16130e"/><circle cx="255.2" cy="222.0" r="1.6" fill="#16130e"/><circle cx="267.0" cy="221.0" r="1.6" fill="#16130e"/><circle cx="276.4" cy="219.9" r="1.6" fill="#16130e"/><circle cx="288.3" cy="221.3" r="1.6" fill="#16130e"/><circle cx="300.2" cy="220.3" r="1.6" fill="#16130e"/><circle cx="312.0" cy="221.7" r="1.6" fill="#16130e"/><circle cx="321.4" cy="220.6" r="1.6" fill="#16130e"/><circle cx="333.3" cy="222.0" r="1.6" fill="#16130e"/><circle cx="345.1" cy="221.0" r="1.6" fill="#16130e"/><circle cx="64.5" cy="229.6" r="1.6" fill="#16130e"/><circle cx="76.4" cy="231.0" r="1.6" fill="#16130e"/><circle cx="88.2" cy="230.0" r="1.6" fill="#16130e"/><circle cx="100.1" cy="231.4" r="1.6" fill="#16130e"/><circle cx="109.5" cy="230.3" r="1.6" fill="#16130e"/><circle cx="121.3" cy="231.7" r="1.6" fill="#16130e"/><circle cx="133.2" cy="230.7" r="1.6" fill="#16130e"/><circle cx="142.6" cy="229.6" r="1.6" fill="#16130e"/><circle cx="154.5" cy="231.0" r="1.6" fill="#16130e"/><circle cx="166.3" cy="230.0" r="1.6" fill="#16130e"/><circle cx="178.2" cy="231.4" r="1.6" fill="#16130e"/><circle cx="187.6" cy="230.3" r="1.6" fill="#16130e"/><circle cx="199.4" cy="231.7" r="1.6" fill="#16130e"/><circle cx="211.3" cy="230.7" r="1.6" fill="#16130e"/><circle cx="220.7" cy="229.6" r="1.6" fill="#16130e"/><circle cx="232.5" cy="231.0" r="1.6" fill="#16130e"/><circle cx="244.4" cy="230.0" r="1.6" fill="#16130e"/><circle cx="256.2" cy="231.4" r="1.6" fill="#16130e"/><circle cx="265.6" cy="230.3" r="1.6" fill="#16130e"/><circle cx="277.5" cy="231.7" r="1.6" fill="#16130e"/><circle cx="289.4" cy="230.7" r="1.6" fill="#16130e"/><circle cx="298.8" cy="229.6" r="1.6" fill="#16130e"/><circle cx="310.6" cy="231.0" r="1.6" fill="#16130e"/><circle cx="322.5" cy="230.0" r="1.6" fill="#16130e"/><circle cx="334.3" cy="231.4" r="1.6" fill="#16130e"/><circle cx="343.7" cy="230.3" r="1.6" fill="#16130e"/><circle cx="65.6" cy="241.4" r="1.6" fill="#16130e"/><circle cx="77.4" cy="240.4" r="1.6" fill="#16130e"/><circle cx="86.8" cy="239.3" r="1.6" fill="#16130e"/><circle cx="98.7" cy="240.7" r="1.6" fill="#16130e"/><circle cx="110.5" cy="239.7" r="1.6" fill="#16130e"/><circle cx="122.4" cy="241.1" r="1.6" fill="#16130e"/><circle cx="131.8" cy="240.0" r="1.6" fill="#16130e"/><circle cx="143.7" cy="241.4" r="1.6" fill="#16130e"/><circle cx="155.5" cy="240.4" r="1.6" fill="#16130e"/><circle cx="164.9" cy="239.3" r="1.6" fill="#16130e"/><circle cx="176.8" cy="240.7" r="1.6" fill="#16130e"/><circle cx="188.6" cy="239.7" r="1.6" fill="#16130e"/><circle cx="200.5" cy="241.1" r="1.6" fill="#16130e"/><circle cx="209.9" cy="240.0" r="1.6" fill="#16130e"/><circle cx="221.7" cy="241.4" r="1.6" fill="#16130e"/><circle cx="233.6" cy="240.4" r="1.6" fill="#16130e"/><circle cx="243.0" cy="239.3" r="1.6" fill="#16130e"/><circle cx="254.8" cy="240.7" r="1.6" fill="#16130e"/><circle cx="266.7" cy="239.7" r="1.6" fill="#16130e"/><circle cx="278.6" cy="241.1" r="1.6" fill="#16130e"/><circle cx="288.0" cy="240.0" r="1.6" fill="#16130e"/><circle cx="299.8" cy="241.4" r="1.6" fill="#16130e"/><circle cx="311.7" cy="240.4" r="1.6" fill="#16130e"/><circle cx="321.1" cy="239.3" r="1.6" fill="#16130e"/><circle cx="332.9" cy="240.7" r="1.6" fill="#16130e"/><circle cx="344.8" cy="239.7" r="1.6" fill="#16130e"/><circle cx="66.6" cy="250.8" r="1.6" fill="#16130e"/><circle cx="76.0" cy="249.7" r="1.6" fill="#16130e"/><circle cx="87.9" cy="251.1" r="1.6" fill="#16130e"/><circle cx="99.7" cy="250.1" r="1.6" fill="#16130e"/><circle cx="109.1" cy="249.0" r="1.6" fill="#16130e"/><circle cx="121.0" cy="250.4" r="1.6" fill="#16130e"/><circle cx="132.8" cy="249.4" r="1.6" fill="#16130e"/><circle cx="144.7" cy="250.8" r="1.6" fill="#16130e"/><circle cx="154.1" cy="249.7" r="1.6" fill="#16130e"/><circle cx="166.0" cy="251.1" r="1.6" fill="#16130e"/><circle cx="177.8" cy="250.1" r="1.6" fill="#16130e"/><circle cx="187.2" cy="249.0" r="1.6" fill="#16130e"/><circle cx="199.1" cy="250.4" r="1.6" fill="#16130e"/><circle cx="210.9" cy="249.4" r="1.6" fill="#16130e"/><circle cx="222.8" cy="250.8" r="1.6" fill="#16130e"/><circle cx="232.2" cy="249.7" r="1.6" fill="#16130e"/><circle cx="244.0" cy="251.1" r="1.6" fill="#16130e"/><circle cx="255.9" cy="250.1" r="1.6" fill="#16130e"/><circle cx="265.3" cy="249.0" r="1.6" fill="#16130e"/><circle cx="277.1" cy="250.4" r="1.6" fill="#16130e"/><circle cx="289.0" cy="249.4" r="1.6" fill="#16130e"/><circle cx="300.9" cy="250.8" r="1.6" fill="#16130e"/><circle cx="310.3" cy="249.7" r="1.6" fill="#16130e"/><circle cx="322.1" cy="251.1" r="1.6" fill="#16130e"/><circle cx="334.0" cy="250.1" r="1.6" fill="#16130e"/><circle cx="343.4" cy="249.0" r="1.6" fill="#16130e"/><circle cx="65.2" cy="260.1" r="1.6" fill="#16130e"/><circle cx="77.1" cy="259.1" r="1.6" fill="#16130e"/><circle cx="88.9" cy="260.5" r="1.6" fill="#16130e"/><circle cx="98.3" cy="259.4" r="1.6" fill="#16130e"/><circle cx="110.2" cy="260.8" r="1.6" fill="#16130e"/><circle cx="122.0" cy="259.8" r="1.6" fill="#16130e"/><circle cx="131.4" cy="258.7" r="1.6" fill="#16130e"/><circle cx="143.3" cy="260.1" r="1.6" fill="#16130e"/><circle cx="155.2" cy="259.1" r="1.6" fill="#16130e"/><circle cx="167.0" cy="260.5" r="1.6" fill="#16130e"/><circle cx="176.4" cy="259.4" r="1.6" fill="#16130e"/><circle cx="188.3" cy="260.8" r="1.6" fill="#16130e"/><circle cx="200.1" cy="259.8" r="1.6" fill="#16130e"/><circle cx="209.5" cy="258.7" r="1.6" fill="#16130e"/><circle cx="221.4" cy="260.1" r="1.6" fill="#16130e"/><circle cx="233.2" cy="259.1" r="1.6" fill="#16130e"/><circle cx="245.1" cy="260.5" r="1.6" fill="#16130e"/><circle cx="254.5" cy="259.4" r="1.6" fill="#16130e"/><circle cx="266.3" cy="260.8" r="1.6" fill="#16130e"/><circle cx="278.2" cy="259.8" r="1.6" fill="#16130e"/><circle cx="287.6" cy="258.7" r="1.6" fill="#16130e"/><circle cx="299.5" cy="260.1" r="1.6" fill="#16130e"/><circle cx="311.3" cy="259.1" r="1.6" fill="#16130e"/><circle cx="323.2" cy="260.5" r="1.6" fill="#16130e"/><circle cx="332.6" cy="259.4" r="1.6" fill="#16130e"/><circle cx="344.4" cy="260.8" r="1.6" fill="#16130e"/><circle cx="66.3" cy="269.5" r="1.6" fill="#16130e"/><circle cx="75.7" cy="268.4" r="1.6" fill="#16130e"/><circle cx="87.5" cy="269.8" r="1.6" fill="#16130e"/><circle cx="99.4" cy="268.8" r="1.6" fill="#16130e"/><circle cx="111.2" cy="270.2" r="1.6" fill="#16130e"/><circle cx="120.6" cy="269.1" r="1.6" fill="#16130e"/><circle cx="132.5" cy="270.5" r="1.6" fill="#16130e"/><circle cx="144.4" cy="269.5" r="1.6" fill="#16130e"/><circle cx="153.8" cy="268.4" r="1.6" fill="#16130e"/><circle cx="165.6" cy="269.8" r="1.6" fill="#16130e"/><circle cx="177.5" cy="268.8" r="1.6" fill="#16130e"/><circle cx="189.3" cy="270.2" r="1.6" fill="#16130e"/><circle cx="198.7" cy="269.1" r="1.6" fill="#16130e"/><circle cx="210.6" cy="270.5" r="1.6" fill="#16130e"/><circle cx="222.4" cy="269.5" r="1.6" fill="#16130e"/><circle cx="231.8" cy="268.4" r="1.6" fill="#16130e"/><circle cx="243.7" cy="269.8" r="1.6" fill="#16130e"/><circle cx="255.5" cy="268.8" r="1.6" fill="#16130e"/><circle cx="267.4" cy="270.2" r="1.6" fill="#16130e"/><circle cx="276.8" cy="269.1" r="1.6" fill="#16130e"/><circle cx="288.7" cy="270.5" r="1.6" fill="#16130e"/><circle cx="300.5" cy="269.5" r="1.6" fill="#16130e"/><circle cx="309.9" cy="268.4" r="1.6" fill="#16130e"/><circle cx="321.8" cy="269.8" r="1.6" fill="#16130e"/><circle cx="333.6" cy="268.8" r="1.6" fill="#16130e"/><circle cx="345.5" cy="270.2" r="1.6" fill="#16130e"/><circle cx="64.9" cy="278.8" r="1.6" fill="#16130e"/><circle cx="76.7" cy="280.2" r="1.6" fill="#16130e"/><circle cx="88.6" cy="279.2" r="1.6" fill="#16130e"/><circle cx="98.0" cy="278.1" r="1.6" fill="#16130e"/><circle cx="109.8" cy="279.5" r="1.6" fill="#16130e"/><circle cx="121.7" cy="278.5" r="1.6" fill="#16130e"/><circle cx="133.6" cy="279.9" r="1.6" fill="#16130e"/><circle cx="143.0" cy="278.8" r="1.6" fill="#16130e"/><circle cx="154.8" cy="280.2" r="1.6" fill="#16130e"/><circle cx="166.7" cy="279.2" r="1.6" fill="#16130e"/><circle cx="176.1" cy="278.1" r="1.6" fill="#16130e"/><circle cx="187.9" cy="279.5" r="1.6" fill="#16130e"/><circle cx="199.8" cy="278.5" r="1.6" fill="#16130e"/><circle cx="211.6" cy="279.9" r="1.6" fill="#16130e"/><circle cx="221.0" cy="278.8" r="1.6" fill="#16130e"/><circle cx="232.9" cy="280.2" r="1.6" fill="#16130e"/><circle cx="244.7" cy="279.2" r="1.6" fill="#16130e"/><circle cx="254.1" cy="278.1" r="1.6" fill="#16130e"/><circle cx="266.0" cy="279.5" r="1.6" fill="#16130e"/><circle cx="277.9" cy="278.5" r="1.6" fill="#16130e"/><circle cx="289.7" cy="279.9" r="1.6" fill="#16130e"/><circle cx="299.1" cy="278.8" r="1.6" fill="#16130e"/><circle cx="311.0" cy="280.2" r="1.6" fill="#16130e"/><circle cx="322.8" cy="279.2" r="1.6" fill="#16130e"/><circle cx="332.2" cy="278.1" r="1.6" fill="#16130e"/><circle cx="344.1" cy="279.5" r="1.6" fill="#16130e"/><circle cx="65.9" cy="288.1" r="1.6" fill="#16130e"/><circle cx="77.8" cy="289.5" r="1.6" fill="#16130e"/><circle cx="87.2" cy="288.5" r="1.6" fill="#16130e"/><circle cx="99.0" cy="289.9" r="1.6" fill="#16130e"/><circle cx="110.9" cy="288.8" r="1.6" fill="#16130e"/><circle cx="120.3" cy="287.8" r="1.6" fill="#16130e"/><circle cx="132.2" cy="289.2" r="1.6" fill="#16130e"/><circle cx="144.0" cy="288.1" r="1.6" fill="#16130e"/><circle cx="155.9" cy="289.5" r="1.6" fill="#16130e"/><circle cx="165.3" cy="288.5" r="1.6" fill="#16130e"/><circle cx="177.1" cy="289.9" r="1.6" fill="#16130e"/><circle cx="189.0" cy="288.8" r="1.6" fill="#16130e"/><circle cx="198.4" cy="287.8" r="1.6" fill="#16130e"/><circle cx="210.2" cy="289.2" r="1.6" fill="#16130e"/><circle cx="222.1" cy="288.1" r="1.6" fill="#16130e"/><circle cx="233.9" cy="289.5" r="1.6" fill="#16130e"/><circle cx="243.3" cy="288.5" r="1.6" fill="#16130e"/><circle cx="255.2" cy="289.9" r="1.6" fill="#16130e"/><circle cx="267.0" cy="288.8" r="1.6" fill="#16130e"/><circle cx="276.4" cy="287.8" r="1.6" fill="#16130e"/><circle cx="288.3" cy="289.2" r="1.6" fill="#16130e"/><circle cx="300.2" cy="288.1" r="1.6" fill="#16130e"/><circle cx="312.0" cy="289.5" r="1.6" fill="#16130e"/><circle cx="321.4" cy="288.5" r="1.6" fill="#16130e"/><circle cx="333.3" cy="289.9" r="1.6" fill="#16130e"/><circle cx="345.1" cy="288.8" r="1.6" fill="#16130e"/><circle cx="64.5" cy="297.5" r="1.6" fill="#16130e"/><circle cx="76.4" cy="298.9" r="1.6" fill="#16130e"/><circle cx="88.2" cy="297.8" r="1.6" fill="#16130e"/><circle cx="100.1" cy="299.2" r="1.6" fill="#16130e"/><circle cx="109.5" cy="298.2" r="1.6" fill="#16130e"/><circle cx="121.3" cy="299.6" r="1.6" fill="#16130e"/><circle cx="133.2" cy="298.5" r="1.6" fill="#16130e"/><circle cx="142.6" cy="297.5" r="1.6" fill="#16130e"/><circle cx="154.5" cy="298.9" r="1.6" fill="#16130e"/><circle cx="166.3" cy="297.8" r="1.6" fill="#16130e"/><circle cx="178.2" cy="299.2" r="1.6" fill="#16130e"/><circle cx="187.6" cy="298.2" r="1.6" fill="#16130e"/><circle cx="199.4" cy="299.6" r="1.6" fill="#16130e"/><circle cx="211.3" cy="298.5" r="1.6" fill="#16130e"/><circle cx="220.7" cy="297.5" r="1.6" fill="#16130e"/><circle cx="232.5" cy="298.9" r="1.6" fill="#16130e"/><circle cx="244.4" cy="297.8" r="1.6" fill="#16130e"/><circle cx="256.2" cy="299.2" r="1.6" fill="#16130e"/><circle cx="265.6" cy="298.2" r="1.6" fill="#16130e"/><circle cx="277.5" cy="299.6" r="1.6" fill="#16130e"/><circle cx="289.4" cy="298.5" r="1.6" fill="#16130e"/><circle cx="298.8" cy="297.5" r="1.6" fill="#16130e"/><circle cx="310.6" cy="298.9" r="1.6" fill="#16130e"/><circle cx="322.5" cy="297.8" r="1.6" fill="#16130e"/><circle cx="334.3" cy="299.2" r="1.6" fill="#16130e"/><circle cx="343.7" cy="298.2" r="1.6" fill="#16130e"/><circle cx="65.6" cy="309.3" r="1.6" fill="#16130e"/><circle cx="77.4" cy="308.2" r="1.6" fill="#16130e"/><circle cx="86.8" cy="307.2" r="1.6" fill="#16130e"/><circle cx="98.7" cy="308.6" r="1.6" fill="#16130e"/><circle cx="110.5" cy="307.5" r="1.6" fill="#16130e"/><circle cx="122.4" cy="308.9" r="1.6" fill="#16130e"/><circle cx="131.8" cy="307.9" r="1.6" fill="#16130e"/><circle cx="143.7" cy="309.3" r="1.6" fill="#16130e"/><circle cx="155.5" cy="308.2" r="1.6" fill="#16130e"/><circle cx="164.9" cy="307.2" r="1.6" fill="#16130e"/><circle cx="176.8" cy="308.6" r="1.6" fill="#16130e"/><circle cx="188.6" cy="307.5" r="1.6" fill="#16130e"/><circle cx="200.5" cy="308.9" r="1.6" fill="#16130e"/><circle cx="209.9" cy="307.9" r="1.6" fill="#16130e"/><circle cx="221.7" cy="309.3" r="1.6" fill="#16130e"/><circle cx="233.6" cy="308.2" r="1.6" fill="#16130e"/><circle cx="243.0" cy="307.2" r="1.6" fill="#16130e"/><circle cx="254.8" cy="308.6" r="1.6" fill="#16130e"/><circle cx="266.7" cy="307.5" r="1.6" fill="#16130e"/><circle cx="278.6" cy="308.9" r="1.6" fill="#16130e"/><circle cx="288.0" cy="307.9" r="1.6" fill="#16130e"/><circle cx="299.8" cy="309.3" r="1.6" fill="#16130e"/><circle cx="311.7" cy="308.2" r="1.6" fill="#16130e"/><circle cx="321.1" cy="307.2" r="1.6" fill="#16130e"/><circle cx="332.9" cy="308.6" r="1.6" fill="#16130e"/><circle cx="344.8" cy="307.5" r="1.6" fill="#16130e"/><circle cx="66.6" cy="318.6" r="1.6" fill="#16130e"/><circle cx="76.0" cy="317.6" r="1.6" fill="#16130e"/><circle cx="87.9" cy="319.0" r="1.6" fill="#16130e"/><circle cx="99.7" cy="317.9" r="1.6" fill="#16130e"/><circle cx="109.1" cy="316.9" r="1.6" fill="#16130e"/><circle cx="121.0" cy="318.3" r="1.6" fill="#16130e"/><circle cx="132.8" cy="317.2" r="1.6" fill="#16130e"/><circle cx="144.7" cy="318.6" r="1.6" fill="#16130e"/><circle cx="154.1" cy="317.6" r="1.6" fill="#16130e"/><circle cx="166.0" cy="319.0" r="1.6" fill="#16130e"/><circle cx="177.8" cy="317.9" r="1.6" fill="#16130e"/><circle cx="187.2" cy="316.9" r="1.6" fill="#16130e"/><circle cx="199.1" cy="318.3" r="1.6" fill="#16130e"/><circle cx="210.9" cy="317.2" r="1.6" fill="#16130e"/><circle cx="222.8" cy="318.6" r="1.6" fill="#16130e"/><circle cx="232.2" cy="317.6" r="1.6" fill="#16130e"/><circle cx="244.0" cy="319.0" r="1.6" fill="#16130e"/><circle cx="255.9" cy="317.9" r="1.6" fill="#16130e"/><circle cx="265.3" cy="316.9" r="1.6" fill="#16130e"/><circle cx="277.1" cy="318.3" r="1.6" fill="#16130e"/><circle cx="289.0" cy="317.2" r="1.6" fill="#16130e"/><circle cx="300.9" cy="318.6" r="1.6" fill="#16130e"/><circle cx="310.3" cy="317.6" r="1.6" fill="#16130e"/><circle cx="322.1" cy="319.0" r="1.6" fill="#16130e"/><circle cx="334.0" cy="317.9" r="1.6" fill="#16130e"/><circle cx="343.4" cy="316.9" r="1.6" fill="#16130e"/><circle cx="65.2" cy="328.0" r="1.6" fill="#16130e"/><circle cx="77.1" cy="326.9" r="1.6" fill="#16130e"/><circle cx="88.9" cy="328.3" r="1.6" fill="#16130e"/><circle cx="98.3" cy="327.3" r="1.6" fill="#16130e"/><circle cx="110.2" cy="328.7" r="1.6" fill="#16130e"/><circle cx="122.0" cy="327.6" r="1.6" fill="#16130e"/><circle cx="131.4" cy="326.6" r="1.6" fill="#16130e"/><circle cx="143.3" cy="328.0" r="1.6" fill="#16130e"/><circle cx="155.2" cy="326.9" r="1.6" fill="#16130e"/><circle cx="167.0" cy="328.3" r="1.6" fill="#16130e"/><circle cx="176.4" cy="327.3" r="1.6" fill="#16130e"/><circle cx="188.3" cy="328.7" r="1.6" fill="#16130e"/><circle cx="200.1" cy="327.6" r="1.6" fill="#16130e"/><circle cx="209.5" cy="326.6" r="1.6" fill="#16130e"/><circle cx="221.4" cy="328.0" r="1.6" fill="#16130e"/><circle cx="233.2" cy="326.9" r="1.6" fill="#16130e"/><circle cx="245.1" cy="328.3" r="1.6" fill="#16130e"/><circle cx="254.5" cy="327.3" r="1.6" fill="#16130e"/><circle cx="266.3" cy="328.7" r="1.6" fill="#16130e"/><circle cx="278.2" cy="327.6" r="1.6" fill="#16130e"/><circle cx="287.6" cy="326.6" r="1.6" fill="#16130e"/><circle cx="299.5" cy="328.0" r="1.6" fill="#16130e"/><circle cx="311.3" cy="326.9" r="1.6" fill="#16130e"/><circle cx="323.2" cy="328.3" r="1.6" fill="#16130e"/><circle cx="332.6" cy="327.3" r="1.6" fill="#16130e"/><circle cx="344.4" cy="328.7" r="1.6" fill="#16130e"/><circle cx="66.3" cy="337.3" r="1.6" fill="#16130e"/><circle cx="75.7" cy="336.3" r="1.6" fill="#16130e"/><circle cx="87.5" cy="337.7" r="1.6" fill="#16130e"/><circle cx="99.4" cy="336.6" r="1.6" fill="#16130e"/><circle cx="111.2" cy="338.0" r="1.6" fill="#16130e"/><circle cx="120.6" cy="337.0" r="1.6" fill="#16130e"/><circle cx="132.5" cy="338.4" r="1.6" fill="#16130e"/><circle cx="144.4" cy="337.3" r="1.6" fill="#16130e"/><circle cx="153.8" cy="336.3" r="1.6" fill="#16130e"/><circle cx="165.6" cy="337.7" r="1.6" fill="#16130e"/><circle cx="177.5" cy="336.6" r="1.6" fill="#16130e"/><circle cx="189.3" cy="338.0" r="1.6" fill="#16130e"/><circle cx="198.7" cy="337.0" r="1.6" fill="#16130e"/><circle cx="210.6" cy="338.4" r="1.6" fill="#16130e"/><circle cx="222.4" cy="337.3" r="1.6" fill="#16130e"/><circle cx="231.8" cy="336.3" r="1.6" fill="#16130e"/><circle cx="243.7" cy="337.7" r="1.6" fill="#16130e"/><circle cx="255.5" cy="336.6" r="1.6" fill="#16130e"/><circle cx="267.4" cy="338.0" r="1.6" fill="#16130e"/><circle cx="276.8" cy="337.0" r="1.6" fill="#16130e"/><circle cx="288.7" cy="338.4" r="1.6" fill="#16130e"/><circle cx="300.5" cy="337.3" r="1.6" fill="#16130e"/><circle cx="309.9" cy="336.3" r="1.6" fill="#16130e"/><circle cx="321.8" cy="337.7" r="1.6" fill="#16130e"/><circle cx="333.6" cy="336.6" r="1.6" fill="#16130e"/><circle cx="345.5" cy="338.0" r="1.6" fill="#16130e"/><circle cx="64.9" cy="346.6" r="1.6" fill="#16130e"/><circle cx="76.7" cy="348.1" r="1.6" fill="#16130e"/><circle cx="88.6" cy="347.0" r="1.6" fill="#16130e"/><circle cx="98.0" cy="345.9" r="1.6" fill="#16130e"/><circle cx="109.8" cy="347.4" r="1.6" fill="#16130e"/><circle cx="121.7" cy="346.3" r="1.6" fill="#16130e"/><circle cx="133.6" cy="347.7" r="1.6" fill="#16130e"/><circle cx="143.0" cy="346.6" r="1.6" fill="#16130e"/><circle cx="154.8" cy="348.1" r="1.6" fill="#16130e"/><circle cx="166.7" cy="347.0" r="1.6" fill="#16130e"/><circle cx="176.1" cy="345.9" r="1.6" fill="#16130e"/><circle cx="187.9" cy="347.4" r="1.6" fill="#16130e"/><circle cx="199.8" cy="346.3" r="1.6" fill="#16130e"/><circle cx="211.6" cy="347.7" r="1.6" fill="#16130e"/><circle cx="221.0" cy="346.6" r="1.6" fill="#16130e"/><circle cx="232.9" cy="348.1" r="1.6" fill="#16130e"/><circle cx="244.7" cy="347.0" r="1.6" fill="#16130e"/><circle cx="254.1" cy="345.9" r="1.6" fill="#16130e"/><circle cx="266.0" cy="347.4" r="1.6" fill="#16130e"/><circle cx="277.9" cy="346.3" r="1.6" fill="#16130e"/><circle cx="289.7" cy="347.7" r="1.6" fill="#16130e"/><circle cx="299.1" cy="346.6" r="1.6" fill="#16130e"/><circle cx="311.0" cy="348.1" r="1.6" fill="#16130e"/><circle cx="322.8" cy="347.0" r="1.6" fill="#16130e"/><circle cx="332.2" cy="345.9" r="1.6" fill="#16130e"/><circle cx="344.1" cy="347.4" r="1.6" fill="#16130e"/><circle cx="65.9" cy="356.0" r="1.6" fill="#16130e"/><circle cx="77.8" cy="357.4" r="1.6" fill="#16130e"/><circle cx="87.2" cy="356.3" r="1.6" fill="#16130e"/><circle cx="99.0" cy="357.7" r="1.6" fill="#16130e"/><circle cx="110.9" cy="356.7" r="1.6" fill="#16130e"/><circle cx="120.3" cy="355.6" r="1.6" fill="#16130e"/><circle cx="132.2" cy="357.0" r="1.6" fill="#16130e"/><circle cx="144.0" cy="356.0" r="1.6" fill="#16130e"/><circle cx="155.9" cy="357.4" r="1.6" fill="#16130e"/><circle cx="165.3" cy="356.3" r="1.6" fill="#16130e"/><circle cx="177.1" cy="357.7" r="1.6" fill="#16130e"/><circle cx="189.0" cy="356.7" r="1.6" fill="#16130e"/><circle cx="198.4" cy="355.6" r="1.6" fill="#16130e"/><circle cx="210.2" cy="357.0" r="1.6" fill="#16130e"/><circle cx="222.1" cy="356.0" r="1.6" fill="#16130e"/><circle cx="233.9" cy="357.4" r="1.6" fill="#16130e"/><circle cx="243.3" cy="356.3" r="1.6" fill="#16130e"/><circle cx="255.2" cy="357.7" r="1.6" fill="#16130e"/><circle cx="267.0" cy="356.7" r="1.6" fill="#16130e"/><circle cx="276.4" cy="355.6" r="1.6" fill="#16130e"/><circle cx="288.3" cy="357.0" r="1.6" fill="#16130e"/><circle cx="300.2" cy="356.0" r="1.6" fill="#16130e"/><circle cx="312.0" cy="357.4" r="1.6" fill="#16130e"/><circle cx="321.4" cy="356.3" r="1.6" fill="#16130e"/><circle cx="333.3" cy="357.7" r="1.6" fill="#16130e"/><circle cx="345.1" cy="356.7" r="1.6" fill="#16130e"/><circle cx="64.5" cy="365.3" r="1.6" fill="#16130e"/><circle cx="76.4" cy="366.7" r="1.6" fill="#16130e"/><circle cx="88.2" cy="365.7" r="1.6" fill="#16130e"/><circle cx="100.1" cy="367.1" r="1.6" fill="#16130e"/><circle cx="109.5" cy="366.0" r="1.6" fill="#16130e"/><circle cx="121.3" cy="367.4" r="1.6" fill="#16130e"/><circle cx="133.2" cy="366.4" r="1.6" fill="#16130e"/><circle cx="142.6" cy="365.3" r="1.6" fill="#16130e"/><circle cx="154.5" cy="366.7" r="1.6" fill="#16130e"/><circle cx="166.3" cy="365.7" r="1.6" fill="#16130e"/><circle cx="178.2" cy="367.1" r="1.6" fill="#16130e"/><circle cx="187.6" cy="366.0" r="1.6" fill="#16130e"/><circle cx="199.4" cy="367.4" r="1.6" fill="#16130e"/><circle cx="211.3" cy="366.4" r="1.6" fill="#16130e"/><circle cx="220.7" cy="365.3" r="1.6" fill="#16130e"/><circle cx="232.5" cy="366.7" r="1.6" fill="#16130e"/><circle cx="244.4" cy="365.7" r="1.6" fill="#16130e"/><circle cx="256.2" cy="367.1" r="1.6" fill="#16130e"/><circle cx="265.6" cy="366.0" r="1.6" fill="#16130e"/><circle cx="277.5" cy="367.4" r="1.6" fill="#16130e"/><circle cx="289.4" cy="366.4" r="1.6" fill="#16130e"/><circle cx="298.8" cy="365.3" r="1.6" fill="#16130e"/><circle cx="310.6" cy="366.7" r="1.6" fill="#16130e"/><circle cx="322.5" cy="365.7" r="1.6" fill="#16130e"/><circle cx="334.3" cy="367.1" r="1.6" fill="#16130e"/><circle cx="343.7" cy="366.0" r="1.6" fill="#16130e"/><circle cx="65.6" cy="377.1" r="1.6" fill="#16130e"/><circle cx="77.4" cy="376.1" r="1.6" fill="#16130e"/><circle cx="86.8" cy="375.0" r="1.6" fill="#16130e"/><circle cx="98.7" cy="376.4" r="1.6" fill="#16130e"/><circle cx="110.5" cy="375.4" r="1.6" fill="#16130e"/><circle cx="122.4" cy="376.8" r="1.6" fill="#16130e"/><circle cx="131.8" cy="375.7" r="1.6" fill="#16130e"/><circle cx="143.7" cy="377.1" r="1.6" fill="#16130e"/><circle cx="155.5" cy="376.1" r="1.6" fill="#16130e"/><circle cx="164.9" cy="375.0" r="1.6" fill="#16130e"/><circle cx="176.8" cy="376.4" r="1.6" fill="#16130e"/><circle cx="188.6" cy="375.4" r="1.6" fill="#16130e"/><circle cx="200.5" cy="376.8" r="1.6" fill="#16130e"/><circle cx="209.9" cy="375.7" r="1.6" fill="#16130e"/><circle cx="221.7" cy="377.1" r="1.6" fill="#16130e"/><circle cx="233.6" cy="376.1" r="1.6" fill="#16130e"/><circle cx="243.0" cy="375.0" r="1.6" fill="#16130e"/><circle cx="254.8" cy="376.4" r="1.6" fill="#16130e"/><circle cx="266.7" cy="375.4" r="1.6" fill="#16130e"/><circle cx="278.6" cy="376.8" r="1.6" fill="#16130e"/><circle cx="288.0" cy="375.7" r="1.6" fill="#16130e"/><circle cx="299.8" cy="377.1" r="1.6" fill="#16130e"/><circle cx="311.7" cy="376.1" r="1.6" fill="#16130e"/><circle cx="321.1" cy="375.0" r="1.6" fill="#16130e"/><circle cx="332.9" cy="376.4" r="1.6" fill="#16130e"/><circle cx="344.8" cy="375.4" r="1.6" fill="#16130e"/><circle cx="66.6" cy="386.5" r="1.6" fill="#16130e"/><circle cx="76.0" cy="385.4" r="1.6" fill="#16130e"/><circle cx="87.9" cy="386.8" r="1.6" fill="#16130e"/><circle cx="99.7" cy="385.8" r="1.6" fill="#16130e"/><circle cx="109.1" cy="384.7" r="1.6" fill="#16130e"/><circle cx="121.0" cy="386.1" r="1.6" fill="#16130e"/><circle cx="132.8" cy="385.1" r="1.6" fill="#16130e"/><circle cx="144.7" cy="386.5" r="1.6" fill="#16130e"/><circle cx="154.1" cy="385.4" r="1.6" fill="#16130e"/><circle cx="166.0" cy="386.8" r="1.6" fill="#16130e"/><circle cx="177.8" cy="385.8" r="1.6" fill="#16130e"/><circle cx="187.2" cy="384.7" r="1.6" fill="#16130e"/><circle cx="199.1" cy="386.1" r="1.6" fill="#16130e"/><circle cx="210.9" cy="385.1" r="1.6" fill="#16130e"/><circle cx="222.8" cy="386.5" r="1.6" fill="#16130e"/><circle cx="232.2" cy="385.4" r="1.6" fill="#16130e"/><circle cx="244.0" cy="386.8" r="1.6" fill="#16130e"/><circle cx="255.9" cy="385.8" r="1.6" fill="#16130e"/><circle cx="265.3" cy="384.7" r="1.6" fill="#16130e"/><circle cx="277.1" cy="386.1" r="1.6" fill="#16130e"/><circle cx="289.0" cy="385.1" r="1.6" fill="#16130e"/><circle cx="300.9" cy="386.5" r="1.6" fill="#16130e"/><circle cx="310.3" cy="385.4" r="1.6" fill="#16130e"/><circle cx="322.1" cy="386.8" r="1.6" fill="#16130e"/><circle cx="334.0" cy="385.8" r="1.6" fill="#16130e"/><circle cx="343.4" cy="384.7" r="1.6" fill="#16130e"/><circle cx="65.2" cy="395.8" r="1.6" fill="#16130e"/><circle cx="77.1" cy="394.8" r="1.6" fill="#16130e"/><circle cx="88.9" cy="396.2" r="1.6" fill="#16130e"/><circle cx="98.3" cy="395.1" r="1.6" fill="#16130e"/><circle cx="110.2" cy="396.5" r="1.6" fill="#16130e"/><circle cx="122.0" cy="395.5" r="1.6" fill="#16130e"/><circle cx="131.4" cy="394.4" r="1.6" fill="#16130e"/><circle cx="143.3" cy="395.8" r="1.6" fill="#16130e"/><circle cx="155.2" cy="394.8" r="1.6" fill="#16130e"/><circle cx="167.0" cy="396.2" r="1.6" fill="#16130e"/><circle cx="176.4" cy="395.1" r="1.6" fill="#16130e"/><circle cx="188.3" cy="396.5" r="1.6" fill="#16130e"/><circle cx="200.1" cy="395.5" r="1.6" fill="#16130e"/><circle cx="209.5" cy="394.4" r="1.6" fill="#16130e"/><circle cx="221.4" cy="395.8" r="1.6" fill="#16130e"/><circle cx="233.2" cy="394.8" r="1.6" fill="#16130e"/><circle cx="245.1" cy="396.2" r="1.6" fill="#16130e"/><circle cx="254.5" cy="395.1" r="1.6" fill="#16130e"/><circle cx="266.3" cy="396.5" r="1.6" fill="#16130e"/><circle cx="278.2" cy="395.5" r="1.6" fill="#16130e"/><circle cx="287.6" cy="394.4" r="1.6" fill="#16130e"/><circle cx="299.5" cy="395.8" r="1.6" fill="#16130e"/><circle cx="311.3" cy="394.8" r="1.6" fill="#16130e"/><circle cx="323.2" cy="396.2" r="1.6" fill="#16130e"/><circle cx="332.6" cy="395.1" r="1.6" fill="#16130e"/><circle cx="344.4" cy="396.5" r="1.6" fill="#16130e"/><circle cx="66.3" cy="405.2" r="1.6" fill="#16130e"/><circle cx="75.7" cy="404.1" r="1.6" fill="#16130e"/><circle cx="87.5" cy="405.5" r="1.6" fill="#16130e"/><circle cx="99.4" cy="404.5" r="1.6" fill="#16130e"/><circle cx="111.2" cy="405.9" r="1.6" fill="#16130e"/><circle cx="120.6" cy="404.8" r="1.6" fill="#16130e"/><circle cx="132.5" cy="406.2" r="1.6" fill="#16130e"/><circle cx="144.4" cy="405.2" r="1.6" fill="#16130e"/><circle cx="153.8" cy="404.1" r="1.6" fill="#16130e"/>
<text x="575.0" y="260.0" text-anchor="middle" font-size="19" font-weight="bold" fill="#16130e">33,4 Mrd. $</text>
<text x="575.0" y="284.0" text-anchor="middle" font-size="11.5" fill="#3d362c"><tspan x="575.0" dy="0">allein 2024 durch Kartenbetrug</tspan><tspan x="575.0" dy="15">gestohlen –</tspan></text>
<text x="575.0" y="318.0" text-anchor="middle" font-size="11.5" fill="#3d362c" font-style="italic">und nichts davon ist hier zu lesen</text>
<text x="205.0" y="456" text-anchor="middle" font-size="11" fill="#3d362c"><tspan x="205.0" dy="0">659 dokumentierte Diebstähle. Jeder</tspan><tspan x="205.0" dy="15">öffentlich, belegt und in hundert Jahren</tspan><tspan x="205.0" dy="15">noch lesbar.</tspan></text>
<text x="575.0" y="456" text-anchor="middle" font-size="11" fill="#3d362c"><tspan x="575.0" dy="0">Kein Register, das Sie öffnen können. Kein</tspan><tspan x="575.0" dy="15">Fremder kann einen einzigen Dollar</tspan><tspan x="575.0" dy="15">verfolgen.</tspan></text>
<line x1="90.0" y1="505" x2="690.0" y2="505" stroke="#3d362c" stroke-width="1" opacity="0.35"/>
<text x="390.0" y="521" text-anchor="middle" font-size="12.5" fill="#16130e" font-style="italic"><tspan x="390.0" dy="0">Der leere Rahmen ist nicht weniger Verbrechen – es ist mindestens genauso</tspan><tspan x="390.0" dy="18">viel. Es ist nur weniger sichtbar: gefunden wird weniger als ein Prozent.</tspan></text>
</svg>
